<svg width="22" height="20" viewBox="0 0 22 20" fill="none" xmlns="http://www.w3.org/2000/svg">
<path d="M10.3018 0.918174C10.6017 -0.00210297 11.9036 -0.00210214 12.2034 0.918175L13.9545 6.29257C14.0887 6.7042 14.4724 6.98278 14.9053 6.98278H20.5661C21.5355 6.98278 21.9378 8.22381 21.1528 8.79257L16.5779 12.1072C16.2265 12.3619 16.0794 12.8141 16.2139 13.2268L17.9624 18.5934C18.2625 19.5143 17.2092 20.2812 16.4249 19.713L11.8394 16.3907C11.4893 16.137 11.016 16.137 10.6659 16.3907L6.08037 19.713C5.29612 20.2812 4.24283 19.5143 4.54285 18.5934L6.29142 13.2268C6.42587 12.8141 6.27879 12.3619 5.92733 12.1072L1.35246 8.79257C0.567455 8.22381 0.969786 6.98278 1.93918 6.98278H7.59994C8.03286 6.98278 8.41662 6.7042 8.55074 6.29257L10.3018 0.918174Z" fill="#E5E5E5"/>
</svg>
